<svg xmlns="http://www.w3.org/2000/svg" version="1.1" xmlns:xlink="http://www.w3.org/1999/xlink" xmlns:svgjs="http://svgjs.dev/svgjs" width="1000" height="623" viewBox="0 0 1000 623"><g transform="matrix(1,0,0,1,-0.6060606060606233,0.2522267206477409)"><svg viewBox="0 0 396 247" data-background-color="#fdf8f1" preserveAspectRatio="xMidYMid meet" height="623" width="1000" xmlns="http://www.w3.org/2000/svg" xmlns:xlink="http://www.w3.org/1999/xlink"><g id="tight-bounds" transform="matrix(1,0,0,1,0.2400000000000091,-0.09999999999999432)"><svg viewBox="0 0 395.52 247.2" height="247.2" width="395.52"><g><svg></svg></g><g><svg viewBox="0 0 395.52 247.2" height="247.2" width="395.52"><mask id="eb950a38-a2cc-4f63-ab0b-d50e68ea2a7f"><rect width="395.52" height="247.2" fill="white"></rect><g transform="matrix(1,0,0,1,138.68,37.08)" id="clone"><svg viewBox="0 0 118.16 173.04" height="173.04" width="118.16"><g><svg viewBox="0 0 118.16 173.04" height="173.04" width="118.16"><g><svg viewBox="0 0 118.16 173.04" height="173.04" width="118.16"><g><svg viewBox="0 0 118.16 173.04" height="173.04" width="118.16"><g id="SvgjsG1118"><svg viewBox="0 0 118.16 173.04" height="173.04" width="118.16" id="SvgjsSvg1117"><g><svg viewBox="0 0 118.16 173.04" height="173.04" width="118.16"><g transform="matrix(1,0,0,1,0,0)"><svg width="118.16" viewBox="-0.20000004768371582 -28.600000381469727 22.100000381469727 31.899999618530273" height="173.04" data-palette-color="#fa4238"><path d="M18.9-6.75L18.9-6.75Q18.9-3.5 16.63-1.6 14.35 0.3 10.4 0.3L10.4 0.3Q5.8 0.3 2.95-1.25L2.95-1.25 2.95-5.1Q6.3-3.1 10.15-3.1L10.15-3.1Q12.45-3.1 13.65-4 14.85-4.9 14.85-6.45L14.85-6.45Q14.85-8.25 13.53-9.25 12.2-10.25 9.1-11.5L9.1-11.5Q6.25-12.6 4.53-14.25 2.8-15.9 2.8-18.7L2.8-18.7Q2.8-21.85 5.18-23.73 7.55-25.6 11.1-25.6L11.1-25.6Q15.05-25.6 17.45-24.5L17.45-24.5 17.45-20.75Q15.15-22.15 11.15-22.15L11.15-22.15Q9.15-22.15 7.98-21.23 6.8-20.3 6.8-18.85L6.8-18.85Q6.8-17.95 7.15-17.28 7.5-16.6 8.53-15.95 9.55-15.3 10.03-15.08 10.5-14.85 12.1-14.15L12.1-14.15Q15.3-12.85 17.1-11.2 18.9-9.55 18.9-6.75Z" opacity="1" transform="matrix(1,0,0,1,0,0)" fill="black" class="wordmark-text-0" id="SvgjsPath1116" stroke-width="5" stroke="black" stroke-linejoin="round"></path></svg></g></svg></g></svg></g></svg></g><g></g></svg></g></svg></g></svg></g></mask><g mask="url(#eb950a38-a2cc-4f63-ab0b-d50e68ea2a7f)"><g><path xmlns="http://www.w3.org/2000/svg" d="M256.639 169.852v0c0 17.424-5.971 30.874-17.913 40.349-11.942 9.515-27.311 14.272-46.105 14.272v0c-20.752 0-38.372-4.209-52.86-12.627v0-25.549c14.292 10.768 31.716 16.151 52.273 16.152v0c12.334 0 22.025-2.741 29.072-8.223 7.048-5.482 10.572-13.411 10.572-23.787v0c0-4.307-0.822-8.183-2.467-11.629-1.684-3.406-4.425-6.539-8.222-9.397-3.837-2.819-7.459-5.168-10.866-7.048-3.446-1.84-8.105-4.131-13.978-6.872v0c-1.175-0.587-2.937-1.37-5.286-2.349v0c-8.418-3.72-14.82-6.754-19.206-9.104-4.425-2.349-9.613-5.834-15.564-10.454-5.991-4.581-10.357-9.906-13.097-15.975-2.741-6.069-4.111-13.117-4.112-21.144v0c0-16.837 6.03-30.012 18.09-39.527 12.021-9.476 27.134-14.213 45.342-14.213v0c17.032 0 31.52 3.035 43.462 9.103v0 24.962c-11.942-7.831-26.234-11.747-42.875-11.747v0c-11.942 0-21.437 2.78-28.485 8.34-7.048 5.599-10.572 12.902-10.572 21.907v0c0 4.699 0.94 8.908 2.819 12.628 1.84 3.72 5.11 7.185 9.808 10.396 4.699 3.25 8.712 5.697 12.041 7.341 3.328 1.684 8.516 4.092 15.564 7.224v0c6.656 2.937 11.747 5.227 15.27 6.872 3.524 1.684 8.086 4.327 13.685 7.929 5.56 3.641 9.769 7.165 12.627 10.572 2.819 3.446 5.364 7.948 7.636 13.508 2.232 5.599 3.348 11.629 3.347 18.09z" fill="#fa4238" fill-rule="nonzero" stroke="none" stroke-width="1" stroke-linecap="butt" stroke-linejoin="miter" stroke-miterlimit="10" stroke-dasharray="" stroke-dashoffset="0" font-family="none" font-weight="none" font-size="none" text-anchor="none" style="mix-blend-mode: normal" data-fill-palette-color="tertiary"></path></g></g><g transform="matrix(1,0,0,1,138.68,37.08)"><svg viewBox="0 0 118.16 173.04" height="173.04" width="118.16"><g><svg viewBox="0 0 118.16 173.04" height="173.04" width="118.16"><g><svg viewBox="0 0 118.16 173.04" height="173.04" width="118.16"><g><svg viewBox="0 0 118.16 173.04" height="173.04" width="118.16"><g id="textblocktransform"><svg viewBox="0 0 118.16 173.04" height="173.04" width="118.16" id="textblock"><g><svg viewBox="0 0 118.16 173.04" height="173.04" width="118.16"><g transform="matrix(1,0,0,1,0,0)"><svg width="118.16" viewBox="-0.20000004768371582 -28.600000381469727 22.100000381469727 31.899999618530273" height="173.04" data-palette-color="#fa4238"><path d="M18.9-6.75L18.9-6.75Q18.9-3.5 16.63-1.6 14.35 0.3 10.4 0.3L10.4 0.3Q5.8 0.3 2.95-1.25L2.95-1.25 2.95-5.1Q6.3-3.1 10.15-3.1L10.15-3.1Q12.45-3.1 13.65-4 14.85-4.9 14.85-6.45L14.85-6.45Q14.85-8.25 13.53-9.25 12.2-10.25 9.1-11.5L9.1-11.5Q6.25-12.6 4.53-14.25 2.8-15.9 2.8-18.7L2.8-18.7Q2.8-21.85 5.18-23.73 7.55-25.6 11.1-25.6L11.1-25.6Q15.05-25.6 17.45-24.5L17.45-24.5 17.45-20.75Q15.15-22.15 11.15-22.15L11.15-22.15Q9.15-22.15 7.98-21.23 6.8-20.3 6.8-18.85L6.8-18.85Q6.8-17.95 7.15-17.28 7.5-16.6 8.53-15.95 9.55-15.3 10.03-15.08 10.5-14.85 12.1-14.15L12.1-14.15Q15.3-12.85 17.1-11.2 18.9-9.55 18.9-6.75Z" opacity="1" transform="matrix(1,0,0,1,0,0)" fill="#fa4238" class="wordmark-text-0" data-fill-palette-color="primary" id="text-0"></path></svg></g></svg></g></svg></g></svg></g><g></g></svg></g></svg></g></svg></g></svg></g><defs></defs></svg><rect width="395.52" height="247.2" fill="none" stroke="none" visibility="hidden"></rect></g></svg></g></svg>